SplineFontDB: 3.2
FontName: Flappy-Bird
FullName: Flappy Bird Regular
FamilyName: Flappy Bird
Weight: Book
Copyright: Copyright FontofFame 2015
Version: 1.0
ItalicAngle: 0
UnderlinePosition: 77
UnderlineWidth: 51
Ascent: 819
Descent: 205
InvalidEm: 0
sfntRevision: 0x00010000
LayerCount: 2
Layer: 0 1 "Back" 1
Layer: 1 1 "Fore" 0
XUID: [1021 724 -212975739 5426]
StyleMap: 0x0040
FSType: 4
OS2Version: 2
OS2_WeightWidthSlopeOnly: 0
OS2_UseTypoMetrics: 0
CreationTime: 1420537000
ModificationTime: 1617752334
PfmFamily: 81
TTFWeight: 400
TTFWidth: 5
LineGap: 0
VLineGap: 0
Panose: 0 0 4 0 0 0 0 0 0 0
OS2TypoAscent: 544
OS2TypoAOffset: 0
OS2TypoDescent: -128
OS2TypoDOffset: 0
OS2TypoLinegap: 0
OS2WinAscent: 672
OS2WinAOffset: 0
OS2WinDescent: 128
OS2WinDOffset: 0
HheadAscent: 672
HheadAOffset: 0
HheadDescent: -128
HheadDOffset: 0
OS2SubXSize: 512
OS2SubYSize: 512
OS2SubXOff: 0
OS2SubYOff: -64
OS2SupXSize: 512
OS2SupYSize: 512
OS2SupXOff: 0
OS2SupYOff: 512
OS2StrikeYSize: 51
OS2StrikeYPos: 204
OS2CapHeight: 544
OS2XHeight: 416
OS2Vendor: 'FSTR'
OS2CodePages: 00000001.00000000
OS2UnicodeRanges: 80000001.00000000.00000000.00000000
DEI: 91125
ShortTable: maxp 16
  1
  0
  92
  84
  12
  0
  0
  2
  0
  0
  0
  0
  0
  0
  0
  0
EndShort
LangName: 1033 "" "" "Regular" "FontStruct Flappy Bird" "" "Version 1.0" "" "FontStruct is a trademark of FSI FontShop International GmbH" "http://fontstruct.com" "FontofFame" "+IBoAxAD6-Flappy Bird+IBoAxAD5 was built with FontStruct+AAoA" "http://www.fontshop.com" "http://fontstruct.com/fontstructions/show/1098577" "FontStruct Non-Commercial License" "" "" "" "" "" "Five big quacking zephyrs jolt my wax bed"
Encoding: UnicodeBmp
UnicodeInterp: none
NameList: AGL For New Fonts
DisplaySize: -48
AntiAlias: 1
FitToEm: 0
WinInfo: 48 16 4
BeginChars: 65539 93

StartChar: .notdef
Encoding: 65536 -1 0
Width: 32
Flags: W
LayerCount: 2
Fore
SplineSet
272 77 m 1,0,-1
 272 163 l 1,1,-1
 185 163 l 1,2,-1
 185 77 l 1,3,-1
 272 77 l 1,0,-1
358 178 m 1,4,-1
 358 264 l 1,5,-1
 185 264 l 1,6,-1
 185 178 l 1,7,-1
 358 178 l 1,4,-1
272 279 m 1,8,-1
 272 365 l 1,9,-1
 185 365 l 1,10,-1
 185 279 l 1,11,-1
 272 279 l 1,8,-1
358 380 m 1,12,-1
 358 466 l 1,13,-1
 272 466 l 2,14,15
 236 466 236 466 211 441 c 0,16,17
 185 415 185 415 185 380 c 1,18,-1
 358 380 l 1,12,-1
0 0 m 1,19,-1
 0 544 l 1,20,-1
 544 544 l 1,21,-1
 544 0 l 1,22,-1
 0 0 l 1,19,-1
EndSplineSet
Validated: 1
EndChar

StartChar: exclam
Encoding: 33 33 4
Width: 196
Flags: W
LayerCount: 2
Fore
SplineSet
32 0 m 1,0,-1
 32 128 l 1,1,-1
 160 128 l 1,2,-1
 160 0 l 1,3,-1
 32 0 l 1,0,-1
32 192 m 1,4,-1
 32 576 l 1,5,-1
 160 576 l 1,6,-1
 160 192 l 1,7,-1
 32 192 l 1,4,-1
EndSplineSet
Validated: 1
EndChar

StartChar: numbersign
Encoding: 35 35 5
Width: 478
Flags: W
LayerCount: 2
Fore
SplineSet
256 224 m 1,0,-1
 256 288 l 1,1,-1
 224 288 l 1,2,-1
 224 224 l 1,3,-1
 256 224 l 1,0,-1
96 0 m 1,4,-1
 96 64 l 1,5,-1
 64 64 l 1,6,-1
 64 224 l 1,7,-1
 96 224 l 1,8,-1
 96 288 l 1,9,-1
 64 288 l 1,10,-1
 64 448 l 1,11,-1
 96 448 l 1,12,-1
 96 544 l 1,13,-1
 224 544 l 1,14,-1
 224 448 l 1,15,-1
 256 448 l 1,16,-1
 256 544 l 1,17,-1
 384 544 l 1,18,-1
 384 448 l 1,19,-1
 416 448 l 1,20,-1
 416 288 l 1,21,-1
 384 288 l 1,22,-1
 384 224 l 1,23,-1
 416 224 l 1,24,-1
 416 64 l 1,25,-1
 384 64 l 1,26,-1
 384 0 l 1,27,-1
 256 0 l 1,28,-1
 256 64 l 1,29,-1
 224 64 l 1,30,-1
 224 0 l 1,31,-1
 96 0 l 1,4,-1
EndSplineSet
Validated: 1
EndChar

StartChar: dollar
Encoding: 36 36 6
Width: 356
Flags: W
LayerCount: 2
Fore
SplineSet
148 160 m 1,0,-1
 148 224 l 1,1,-1
 52 224 l 1,2,-1
 52 320 l 1,3,-1
 148 320 l 1,4,-1
 148 352 l 1,5,-1
 84 352 l 1,6,-1
 84 384 l 1,7,-1
 52 384 l 1,8,-1
 52 480 l 1,9,-1
 84 480 l 1,10,-1
 84 512 l 1,11,-1
 116 512 l 1,12,-1
 116 544 l 1,13,-1
 148 544 l 1,14,-1
 148 608 l 1,15,-1
 244 608 l 1,16,-1
 244 544 l 1,17,-1
 308 544 l 1,18,-1
 308 416 l 1,19,-1
 244 416 l 1,20,-1
 244 384 l 1,21,-1
 276 384 l 1,22,-1
 276 352 l 1,23,-1
 308 352 l 1,24,-1
 308 256 l 1,25,-1
 276 256 l 1,26,-1
 276 224 l 1,27,-1
 244 224 l 1,28,-1
 244 160 l 1,29,-1
 148 160 l 1,0,-1
EndSplineSet
Validated: 1
EndChar

StartChar: percent
Encoding: 37 37 7
Width: 401
Flags: W
LayerCount: 2
Fore
SplineSet
297 192 m 1,0,-1
 297 224 l 1,1,-1
 329 224 l 1,2,-1
 329 192 l 1,3,-1
 297 192 l 1,0,-1
265 224 m 1,4,-1
 265 256 l 1,5,-1
 297 256 l 1,6,-1
 297 224 l 1,7,-1
 265 224 l 1,4,-1
329 224 m 1,8,-1
 329 256 l 1,9,-1
 361 256 l 1,10,-1
 361 224 l 1,11,-1
 329 224 l 1,8,-1
297 256 m 1,12,-1
 297 288 l 1,13,-1
 329 288 l 1,14,-1
 329 256 l 1,15,-1
 297 256 l 1,12,-1
73 384 m 1,16,-1
 73 416 l 1,17,-1
 105 416 l 1,18,-1
 105 384 l 1,19,-1
 73 384 l 1,16,-1
41 128 m 1,20,-1
 41 160 l 1,21,-1
 73 160 l 1,22,-1
 73 224 l 1,23,-1
 137 224 l 1,24,-1
 137 288 l 1,25,-1
 169 288 l 1,26,-1
 169 352 l 1,27,-1
 201 352 l 1,28,-1
 201 416 l 1,29,-1
 265 416 l 1,30,-1
 265 384 l 1,31,-1
 233 384 l 1,32,-1
 233 320 l 1,33,-1
 201 320 l 1,34,-1
 201 256 l 1,35,-1
 169 256 l 1,36,-1
 169 192 l 1,37,-1
 105 192 l 1,38,-1
 105 128 l 1,39,-1
 41 128 l 1,20,-1
41 416 m 1,40,-1
 41 448 l 1,41,-1
 73 448 l 1,42,-1
 73 416 l 1,43,-1
 41 416 l 1,40,-1
105 416 m 1,44,-1
 105 448 l 1,45,-1
 137 448 l 1,46,-1
 137 416 l 1,47,-1
 105 416 l 1,44,-1
265 416 m 1,48,-1
 265 448 l 1,49,-1
 297 448 l 1,50,-1
 297 416 l 1,51,-1
 265 416 l 1,48,-1
73 448 m 1,52,-1
 73 480 l 1,53,-1
 105 480 l 1,54,-1
 105 448 l 1,55,-1
 73 448 l 1,52,-1
297 448 m 1,56,-1
 297 480 l 1,57,-1
 329 480 l 1,58,-1
 329 448 l 1,59,-1
 297 448 l 1,56,-1
EndSplineSet
Validated: 5
EndChar

StartChar: ampersand
Encoding: 38 38 8
Width: 502
Flags: W
LayerCount: 2
Fore
SplineSet
354 0 m 1,0,-1
 354 32 l 1,1,-1
 418 32 l 1,2,-1
 418 0 l 1,3,-1
 354 0 l 1,0,-1
226 32 m 1,4,-1
 226 96 l 1,5,-1
 194 96 l 1,6,-1
 194 128 l 1,7,-1
 162 128 l 1,8,-1
 162 96 l 1,9,-1
 130 96 l 1,10,-1
 130 32 l 1,11,-1
 226 32 l 1,4,-1
66 0 m 1,12,-1
 66 64 l 1,13,-1
 98 64 l 1,14,-1
 98 128 l 1,15,-1
 130 128 l 1,16,-1
 130 224 l 1,17,-1
 194 224 l 1,18,-1
 194 256 l 1,19,-1
 226 256 l 1,20,-1
 226 288 l 1,21,-1
 290 288 l 1,22,-1
 290 256 l 1,23,-1
 258 256 l 1,24,-1
 258 224 l 1,25,-1
 226 224 l 1,26,-1
 226 192 l 1,27,-1
 194 192 l 1,28,-1
 194 160 l 1,29,-1
 226 160 l 1,30,-1
 226 128 l 1,31,-1
 258 128 l 1,32,-1
 258 96 l 1,33,-1
 290 96 l 1,34,-1
 290 64 l 1,35,-1
 322 64 l 1,36,-1
 322 96 l 1,37,-1
 418 96 l 1,38,-1
 418 192 l 1,39,-1
 482 192 l 1,40,-1
 482 160 l 1,41,-1
 450 160 l 1,42,-1
 450 64 l 1,43,-1
 354 64 l 1,44,-1
 354 32 l 1,45,-1
 258 32 l 1,46,-1
 258 0 l 1,47,-1
 66 0 l 1,12,-1
98 224 m 1,48,-1
 98 320 l 1,49,-1
 130 320 l 1,50,-1
 130 384 l 1,51,-1
 162 384 l 1,52,-1
 162 416 l 1,53,-1
 226 416 l 1,54,-1
 226 384 l 1,55,-1
 194 384 l 1,56,-1
 194 352 l 1,57,-1
 162 352 l 1,58,-1
 162 288 l 1,59,-1
 130 288 l 1,60,-1
 130 224 l 1,61,-1
 98 224 l 1,48,-1
226 416 m 1,62,-1
 226 448 l 1,63,-1
 322 448 l 1,64,-1
 322 416 l 1,65,-1
 226 416 l 1,62,-1
290 288 m 1,66,-1
 290 320 l 1,67,-1
 354 320 l 1,68,-1
 354 352 l 1,69,-1
 386 352 l 1,70,-1
 386 384 l 1,71,-1
 418 384 l 1,72,-1
 418 448 l 1,73,-1
 450 448 l 1,74,-1
 450 352 l 1,75,-1
 418 352 l 1,76,-1
 418 320 l 1,77,-1
 386 320 l 1,78,-1
 386 288 l 1,79,-1
 290 288 l 1,66,-1
322 448 m 1,80,-1
 322 480 l 1,81,-1
 418 480 l 1,82,-1
 418 448 l 1,83,-1
 322 448 l 1,80,-1
EndSplineSet
Validated: 5
EndChar

StartChar: quotesingle
Encoding: 39 39 9
Width: 138
Flags: W
LayerCount: 2
Fore
SplineSet
32 256 m 1,0,-1
 32 384 l 1,1,-1
 96 384 l 1,2,-1
 96 256 l 1,3,-1
 32 256 l 1,0,-1
EndSplineSet
Validated: 1
EndChar

StartChar: parenleft
Encoding: 40 40 10
Width: 312
Flags: W
LayerCount: 2
Fore
SplineSet
96 0 m 1,0,-1
 96 32 l 1,1,-1
 64 32 l 1,2,-1
 64 64 l 1,3,-1
 32 64 l 1,4,-1
 32 480 l 1,5,-1
 64 480 l 1,6,-1
 64 512 l 1,7,-1
 96 512 l 1,8,-1
 96 544 l 1,9,-1
 256 544 l 1,10,-1
 256 512 l 1,11,-1
 128 512 l 1,12,-1
 128 32 l 1,13,-1
 256 32 l 1,14,-1
 256 0 l 1,15,-1
 96 0 l 1,0,-1
EndSplineSet
Validated: 1
EndChar

StartChar: parenright
Encoding: 41 41 11
Width: 288
Flags: W
LayerCount: 2
Fore
SplineSet
32 0 m 1,0,-1
 32 32 l 1,1,-1
 160 32 l 1,2,-1
 160 512 l 1,3,-1
 32 512 l 1,4,-1
 32 544 l 1,5,-1
 192 544 l 1,6,-1
 192 512 l 1,7,-1
 224 512 l 1,8,-1
 224 480 l 1,9,-1
 256 480 l 1,10,-1
 256 64 l 1,11,-1
 224 64 l 1,12,-1
 224 32 l 1,13,-1
 192 32 l 1,14,-1
 192 0 l 1,15,-1
 32 0 l 1,0,-1
EndSplineSet
Validated: 1
EndChar

StartChar: asterisk
Encoding: 42 42 12
Width: 220
Flags: W
LayerCount: 2
Fore
SplineSet
96 320 m 1,0,-1
 96 352 l 1,1,-1
 64 352 l 1,2,-1
 64 384 l 1,3,-1
 96 384 l 1,4,-1
 96 416 l 1,5,-1
 128 416 l 1,6,-1
 128 384 l 1,7,-1
 160 384 l 1,8,-1
 160 352 l 1,9,-1
 128 352 l 1,10,-1
 128 320 l 1,11,-1
 96 320 l 1,0,-1
EndSplineSet
Validated: 1
EndChar

StartChar: plus
Encoding: 43 43 13
Width: 394
Flags: W
LayerCount: 2
Fore
SplineSet
126 288 m 1,0,-1
 126 416 l 1,1,-1
 62 416 l 1,2,-1
 62 512 l 1,3,-1
 126 512 l 1,4,-1
 126 608 l 1,5,-1
 254 608 l 1,6,-1
 254 512 l 1,7,-1
 318 512 l 1,8,-1
 318 416 l 1,9,-1
 254 416 l 1,10,-1
 254 288 l 1,11,-1
 126 288 l 1,0,-1
EndSplineSet
Validated: 1
EndChar

StartChar: comma
Encoding: 44 44 14
Width: 99
Flags: W
LayerCount: 2
Fore
SplineSet
48 0 m 1,0,-1
 48 32 l 1,1,-1
 16 32 l 1,2,-1
 16 96 l 1,3,-1
 80 96 l 1,4,-1
 80 0 l 1,5,-1
 48 0 l 1,0,-1
EndSplineSet
Validated: 1
EndChar

StartChar: hyphen
Encoding: 45 45 15
Width: 416
Flags: W
LayerCount: 2
Fore
SplineSet
32 448 m 1,0,-1
 32 544 l 1,1,-1
 352 544 l 1,2,-1
 352 448 l 1,3,-1
 32 448 l 1,0,-1
EndSplineSet
Validated: 1
EndChar

StartChar: period
Encoding: 46 46 16
Width: 128
Flags: W
LayerCount: 2
Fore
SplineSet
32 0 m 1,0,-1
 32 64 l 1,1,-1
 96 64 l 1,2,-1
 96 0 l 1,3,-1
 32 0 l 1,0,-1
EndSplineSet
Validated: 1
EndChar

StartChar: slash
Encoding: 47 47 17
Width: 380
Flags: W
LayerCount: 2
Fore
SplineSet
62 0 m 1,0,-1
 62 64 l 1,1,-1
 94 64 l 1,2,-1
 94 0 l 1,3,-1
 62 0 l 1,0,-1
94 64 m 1,4,-1
 94 128 l 1,5,-1
 126 128 l 1,6,-1
 126 64 l 1,7,-1
 94 64 l 1,4,-1
126 128 m 1,8,-1
 126 224 l 1,9,-1
 158 224 l 1,10,-1
 158 128 l 1,11,-1
 126 128 l 1,8,-1
158 224 m 1,12,-1
 158 288 l 1,13,-1
 190 288 l 1,14,-1
 190 224 l 1,15,-1
 158 224 l 1,12,-1
190 288 m 1,16,-1
 190 384 l 1,17,-1
 222 384 l 1,18,-1
 222 288 l 1,19,-1
 190 288 l 1,16,-1
222 384 m 1,20,-1
 222 448 l 1,21,-1
 254 448 l 1,22,-1
 254 384 l 1,23,-1
 222 384 l 1,20,-1
254 448 m 1,24,-1
 254 544 l 1,25,-1
 286 544 l 1,26,-1
 286 448 l 1,27,-1
 254 448 l 1,24,-1
286 544 m 1,28,-1
 286 608 l 1,29,-1
 318 608 l 1,30,-1
 318 544 l 1,31,-1
 286 544 l 1,28,-1
318 608 m 1,32,-1
 318 672 l 1,33,-1
 350 672 l 1,34,-1
 350 608 l 1,35,-1
 318 608 l 1,32,-1
EndSplineSet
Validated: 5
EndChar

StartChar: zero
Encoding: 48 48 18
Width: 352
Flags: W
LayerCount: 2
Fore
SplineSet
192 96 m 1,0,-1
 192 192 l 1,1,-1
 160 192 l 1,2,-1
 160 96 l 1,3,-1
 192 96 l 1,0,-1
192 320 m 1,4,-1
 192 448 l 1,5,-1
 160 448 l 1,6,-1
 160 320 l 1,7,-1
 192 320 l 1,4,-1
64 0 m 1,8,-1
 64 32 l 1,9,-1
 32 32 l 1,10,-1
 32 480 l 1,11,-1
 64 480 l 1,12,-1
 64 512 l 1,13,-1
 96 512 l 1,14,-1
 96 544 l 1,15,-1
 256 544 l 1,16,-1
 256 512 l 1,17,-1
 288 512 l 1,18,-1
 288 480 l 1,19,-1
 320 480 l 1,20,-1
 320 64 l 1,21,-1
 288 64 l 1,22,-1
 288 32 l 1,23,-1
 256 32 l 1,24,-1
 256 0 l 1,25,-1
 64 0 l 1,8,-1
EndSplineSet
Validated: 1
EndChar

StartChar: one
Encoding: 49 49 19
Width: 352
Flags: W
LayerCount: 2
Fore
SplineSet
192 0 m 1,0,-1
 192 384 l 1,1,-1
 64 384 l 1,2,-1
 64 544 l 1,3,-1
 256 544 l 1,4,-1
 256 512 l 1,5,-1
 288 512 l 1,6,-1
 288 480 l 1,7,-1
 320 480 l 1,8,-1
 320 0 l 1,9,-1
 192 0 l 1,0,-1
EndSplineSet
Validated: 1
EndChar

StartChar: two
Encoding: 50 50 20
Width: 352
Flags: W
LayerCount: 2
Fore
SplineSet
32 0 m 1,0,-1
 32 320 l 1,1,-1
 64 320 l 1,2,-1
 64 352 l 1,3,-1
 96 352 l 1,4,-1
 96 384 l 1,5,-1
 192 384 l 1,6,-1
 192 416 l 1,7,-1
 32 416 l 1,8,-1
 32 544 l 1,9,-1
 256 544 l 1,10,-1
 256 512 l 1,11,-1
 288 512 l 1,12,-1
 288 480 l 1,13,-1
 320 480 l 1,14,-1
 320 288 l 1,15,-1
 288 288 l 1,16,-1
 288 256 l 1,17,-1
 256 256 l 1,18,-1
 256 224 l 1,19,-1
 160 224 l 1,20,-1
 160 192 l 1,21,-1
 320 192 l 1,22,-1
 320 0 l 1,23,-1
 32 0 l 1,0,-1
EndSplineSet
Validated: 1
EndChar

StartChar: three
Encoding: 51 51 21
Width: 352
Flags: W
LayerCount: 2
Fore
SplineSet
32 0 m 1,0,-1
 32 192 l 1,1,-1
 192 192 l 1,2,-1
 192 224 l 1,3,-1
 32 224 l 1,4,-1
 32 384 l 1,5,-1
 192 384 l 1,6,-1
 192 416 l 1,7,-1
 32 416 l 1,8,-1
 32 544 l 1,9,-1
 256 544 l 1,10,-1
 256 512 l 1,11,-1
 288 512 l 1,12,-1
 288 480 l 1,13,-1
 320 480 l 1,14,-1
 320 288 l 1,15,-1
 288 288 l 1,16,-1
 288 256 l 1,17,-1
 256 256 l 1,18,-1
 256 224 l 1,19,-1
 288 224 l 1,20,-1
 288 192 l 1,21,-1
 320 192 l 1,22,-1
 320 64 l 1,23,-1
 288 64 l 1,24,-1
 288 32 l 1,25,-1
 256 32 l 1,26,-1
 256 0 l 1,27,-1
 32 0 l 1,0,-1
EndSplineSet
Validated: 1
EndChar

StartChar: four
Encoding: 52 52 22
Width: 352
Flags: W
LayerCount: 2
Fore
SplineSet
192 0 m 1,0,-1
 192 160 l 1,1,-1
 96 160 l 1,2,-1
 96 192 l 1,3,-1
 64 192 l 1,4,-1
 64 224 l 1,5,-1
 32 224 l 1,6,-1
 32 544 l 1,7,-1
 160 544 l 1,8,-1
 160 352 l 1,9,-1
 192 352 l 1,10,-1
 192 544 l 1,11,-1
 320 544 l 1,12,-1
 320 0 l 1,13,-1
 192 0 l 1,0,-1
EndSplineSet
Validated: 1
EndChar

StartChar: five
Encoding: 53 53 23
Width: 352
Flags: W
LayerCount: 2
Fore
SplineSet
32 0 m 1,0,-1
 32 192 l 1,1,-1
 192 192 l 1,2,-1
 192 224 l 1,3,-1
 32 224 l 1,4,-1
 32 544 l 1,5,-1
 320 544 l 1,6,-1
 320 416 l 1,7,-1
 160 416 l 1,8,-1
 160 384 l 1,9,-1
 256 384 l 1,10,-1
 256 352 l 1,11,-1
 288 352 l 1,12,-1
 288 320 l 1,13,-1
 320 320 l 1,14,-1
 320 96 l 1,15,-1
 288 96 l 1,16,-1
 288 64 l 1,17,-1
 256 64 l 1,18,-1
 256 32 l 1,19,-1
 224 32 l 1,20,-1
 224 0 l 1,21,-1
 32 0 l 1,0,-1
EndSplineSet
Validated: 1
EndChar

StartChar: six
Encoding: 54 54 24
Width: 352
Flags: W
LayerCount: 2
Fore
SplineSet
192 128 m 1,0,-1
 192 288 l 1,1,-1
 160 288 l 1,2,-1
 160 128 l 1,3,-1
 192 128 l 1,0,-1
128 0 m 1,4,-1
 128 32 l 1,5,-1
 96 32 l 1,6,-1
 96 64 l 1,7,-1
 64 64 l 1,8,-1
 64 96 l 1,9,-1
 32 96 l 1,10,-1
 32 448 l 1,11,-1
 64 448 l 1,12,-1
 64 480 l 1,13,-1
 96 480 l 1,14,-1
 96 512 l 1,15,-1
 128 512 l 1,16,-1
 128 544 l 1,17,-1
 320 544 l 1,18,-1
 320 416 l 1,19,-1
 160 416 l 1,20,-1
 160 384 l 1,21,-1
 256 384 l 1,22,-1
 256 352 l 1,23,-1
 288 352 l 1,24,-1
 288 320 l 1,25,-1
 320 320 l 1,26,-1
 320 96 l 1,27,-1
 288 96 l 1,28,-1
 288 64 l 1,29,-1
 256 64 l 1,30,-1
 256 32 l 1,31,-1
 224 32 l 1,32,-1
 224 0 l 1,33,-1
 128 0 l 1,4,-1
EndSplineSet
Validated: 1
EndChar

StartChar: seven
Encoding: 55 55 25
Width: 416
Flags: W
LayerCount: 2
Fore
SplineSet
256 0 m 1,0,-1
 256 384 l 1,1,-1
 160 384 l 1,2,-1
 160 288 l 1,3,-1
 32 288 l 1,4,-1
 32 480 l 1,5,-1
 64 480 l 1,6,-1
 64 512 l 1,7,-1
 96 512 l 1,8,-1
 96 544 l 1,9,-1
 320 544 l 1,10,-1
 320 512 l 1,11,-1
 352 512 l 1,12,-1
 352 480 l 1,13,-1
 384 480 l 1,14,-1
 384 0 l 1,15,-1
 256 0 l 1,0,-1
EndSplineSet
Validated: 1
EndChar

StartChar: eight
Encoding: 56 56 26
Width: 352
Flags: W
LayerCount: 2
Fore
SplineSet
192 96 m 1,0,-1
 192 224 l 1,1,-1
 160 224 l 1,2,-1
 160 96 l 1,3,-1
 192 96 l 1,0,-1
192 352 m 1,4,-1
 192 448 l 1,5,-1
 160 448 l 1,6,-1
 160 352 l 1,7,-1
 192 352 l 1,4,-1
64 0 m 1,8,-1
 64 32 l 1,9,-1
 32 32 l 1,10,-1
 32 256 l 1,11,-1
 64 256 l 1,12,-1
 64 288 l 1,13,-1
 96 288 l 1,14,-1
 96 320 l 1,15,-1
 64 320 l 1,16,-1
 64 352 l 1,17,-1
 32 352 l 1,18,-1
 32 480 l 1,19,-1
 64 480 l 1,20,-1
 64 512 l 1,21,-1
 96 512 l 1,22,-1
 96 544 l 1,23,-1
 256 544 l 1,24,-1
 256 512 l 1,25,-1
 288 512 l 1,26,-1
 288 480 l 1,27,-1
 320 480 l 1,28,-1
 320 352 l 1,29,-1
 288 352 l 1,30,-1
 288 320 l 1,31,-1
 256 320 l 1,32,-1
 256 288 l 1,33,-1
 288 288 l 1,34,-1
 288 256 l 1,35,-1
 320 256 l 1,36,-1
 320 64 l 1,37,-1
 288 64 l 1,38,-1
 288 32 l 1,39,-1
 256 32 l 1,40,-1
 256 0 l 1,41,-1
 64 0 l 1,8,-1
EndSplineSet
Validated: 1
EndChar

StartChar: nine
Encoding: 57 57 27
Width: 352
Flags: W
LayerCount: 2
Fore
SplineSet
192 256 m 1,0,-1
 192 416 l 1,1,-1
 160 416 l 1,2,-1
 160 256 l 1,3,-1
 192 256 l 1,0,-1
32 0 m 1,4,-1
 32 128 l 1,5,-1
 192 128 l 1,6,-1
 192 160 l 1,7,-1
 96 160 l 1,8,-1
 96 192 l 1,9,-1
 64 192 l 1,10,-1
 64 224 l 1,11,-1
 32 224 l 1,12,-1
 32 448 l 1,13,-1
 64 448 l 1,14,-1
 64 480 l 1,15,-1
 96 480 l 1,16,-1
 96 512 l 1,17,-1
 128 512 l 1,18,-1
 128 544 l 1,19,-1
 224 544 l 1,20,-1
 224 512 l 1,21,-1
 256 512 l 1,22,-1
 256 480 l 1,23,-1
 288 480 l 1,24,-1
 288 448 l 1,25,-1
 320 448 l 1,26,-1
 320 96 l 1,27,-1
 288 96 l 1,28,-1
 288 64 l 1,29,-1
 256 64 l 1,30,-1
 256 32 l 1,31,-1
 224 32 l 1,32,-1
 224 0 l 1,33,-1
 32 0 l 1,4,-1
EndSplineSet
Validated: 1
EndChar

StartChar: colon
Encoding: 58 58 28
Width: 512
Flags: W
LayerCount: 2
Fore
SplineSet
128 96 m 1,0,-1
 128 224 l 1,1,-1
 256 224 l 1,2,-1
 256 96 l 1,3,-1
 128 96 l 1,0,-1
128 480 m 1,4,-1
 128 608 l 1,5,-1
 256 608 l 1,6,-1
 256 480 l 1,7,-1
 128 480 l 1,4,-1
EndSplineSet
Validated: 1
EndChar

StartChar: semicolon
Encoding: 59 59 29
Width: 288
Flags: W
LayerCount: 2
Fore
SplineSet
224 96 m 1,0,-1
 224 128 l 1,1,-1
 192 128 l 1,2,-1
 192 160 l 1,3,-1
 128 160 l 1,4,-1
 128 224 l 1,5,-1
 256 224 l 1,6,-1
 256 96 l 1,7,-1
 224 96 l 1,0,-1
128 480 m 1,8,-1
 128 608 l 1,9,-1
 256 608 l 1,10,-1
 256 480 l 1,11,-1
 128 480 l 1,8,-1
EndSplineSet
Validated: 1
EndChar

StartChar: less
Encoding: 60 60 30
Width: 928
Flags: W
LayerCount: 2
Fore
SplineSet
448 224 m 1,0,-1
 448 256 l 1,1,-1
 512 256 l 1,2,-1
 512 224 l 1,3,-1
 448 224 l 1,0,-1
384 256 m 1,4,-1
 384 288 l 1,5,-1
 448 288 l 1,6,-1
 448 256 l 1,7,-1
 384 256 l 1,4,-1
288 288 m 1,8,-1
 288 320 l 1,9,-1
 384 320 l 1,10,-1
 384 288 l 1,11,-1
 288 288 l 1,8,-1
224 320 m 1,12,-1
 224 352 l 1,13,-1
 288 352 l 1,14,-1
 288 320 l 1,15,-1
 224 320 l 1,12,-1
160 352 m 1,16,-1
 160 384 l 1,17,-1
 192 384 l 1,18,-1
 192 416 l 1,19,-1
 224 416 l 1,20,-1
 224 352 l 1,21,-1
 160 352 l 1,16,-1
224 416 m 1,22,-1
 224 448 l 1,23,-1
 256 448 l 1,24,-1
 256 416 l 1,25,-1
 224 416 l 1,22,-1
256 448 m 1,26,-1
 256 480 l 1,27,-1
 288 480 l 1,28,-1
 288 448 l 1,29,-1
 256 448 l 1,26,-1
288 480 m 1,30,-1
 288 512 l 1,31,-1
 352 512 l 1,32,-1
 352 480 l 1,33,-1
 288 480 l 1,30,-1
352 512 m 1,34,-1
 352 544 l 1,35,-1
 384 544 l 1,36,-1
 384 512 l 1,37,-1
 352 512 l 1,34,-1
384 544 m 1,38,-1
 384 576 l 1,39,-1
 416 576 l 1,40,-1
 416 544 l 1,41,-1
 384 544 l 1,38,-1
416 576 m 1,42,-1
 416 608 l 1,43,-1
 448 608 l 1,44,-1
 448 576 l 1,45,-1
 416 576 l 1,42,-1
448 608 m 1,46,-1
 448 640 l 1,47,-1
 480 640 l 1,48,-1
 480 608 l 1,49,-1
 448 608 l 1,46,-1
EndSplineSet
Validated: 5
EndChar

StartChar: equal
Encoding: 61 61 31
Width: 736
Flags: W
LayerCount: 2
Fore
SplineSet
160 224 m 1,0,-1
 160 352 l 1,1,-1
 512 352 l 1,2,-1
 512 224 l 1,3,-1
 160 224 l 1,0,-1
160 416 m 1,4,-1
 160 544 l 1,5,-1
 512 544 l 1,6,-1
 512 416 l 1,7,-1
 160 416 l 1,4,-1
EndSplineSet
Validated: 1
EndChar

StartChar: greater
Encoding: 62 62 32
Width: 736
Flags: W
LayerCount: 2
Fore
SplineSet
224 160 m 1,0,-1
 224 192 l 1,1,-1
 256 192 l 1,2,-1
 256 160 l 1,3,-1
 224 160 l 1,0,-1
256 192 m 1,4,-1
 256 224 l 1,5,-1
 320 224 l 1,6,-1
 320 192 l 1,7,-1
 256 192 l 1,4,-1
320 224 m 1,8,-1
 320 256 l 1,9,-1
 384 256 l 1,10,-1
 384 224 l 1,11,-1
 320 224 l 1,8,-1
384 256 m 1,12,-1
 384 288 l 1,13,-1
 448 288 l 1,14,-1
 448 256 l 1,15,-1
 384 256 l 1,12,-1
448 288 m 1,16,-1
 448 320 l 1,17,-1
 512 320 l 1,18,-1
 512 288 l 1,19,-1
 448 288 l 1,16,-1
512 320 m 1,20,-1
 512 352 l 1,21,-1
 480 352 l 1,22,-1
 480 384 l 1,23,-1
 544 384 l 1,24,-1
 544 352 l 1,25,-1
 576 352 l 1,26,-1
 576 320 l 1,27,-1
 512 320 l 1,20,-1
448 384 m 1,28,-1
 448 416 l 1,29,-1
 480 416 l 1,30,-1
 480 384 l 1,31,-1
 448 384 l 1,28,-1
416 416 m 1,32,-1
 416 448 l 1,33,-1
 448 448 l 1,34,-1
 448 416 l 1,35,-1
 416 416 l 1,32,-1
352 448 m 1,36,-1
 352 480 l 1,37,-1
 416 480 l 1,38,-1
 416 448 l 1,39,-1
 352 448 l 1,36,-1
320 480 m 1,40,-1
 320 512 l 1,41,-1
 352 512 l 1,42,-1
 352 480 l 1,43,-1
 320 480 l 1,40,-1
256 512 m 1,44,-1
 256 544 l 1,45,-1
 320 544 l 1,46,-1
 320 512 l 1,47,-1
 256 512 l 1,44,-1
224 544 m 1,48,-1
 224 576 l 1,49,-1
 256 576 l 1,50,-1
 256 544 l 1,51,-1
 224 544 l 1,48,-1
EndSplineSet
Validated: 5
EndChar

StartChar: question
Encoding: 63 63 33
Width: 352
Flags: W
LayerCount: 2
Fore
SplineSet
160 0 m 1,0,-1
 160 64 l 1,1,-1
 256 64 l 1,2,-1
 256 0 l 1,3,-1
 160 0 l 1,0,-1
160 128 m 1,4,-1
 160 192 l 1,5,-1
 192 192 l 1,6,-1
 192 416 l 1,7,-1
 32 416 l 1,8,-1
 32 544 l 1,9,-1
 224 544 l 1,10,-1
 224 512 l 1,11,-1
 256 512 l 1,12,-1
 256 480 l 1,13,-1
 320 480 l 1,14,-1
 320 224 l 1,15,-1
 288 224 l 1,16,-1
 288 192 l 1,17,-1
 256 192 l 1,18,-1
 256 160 l 1,19,-1
 224 160 l 1,20,-1
 224 128 l 1,21,-1
 160 128 l 1,4,-1
EndSplineSet
Validated: 1
EndChar

StartChar: at
Encoding: 64 64 34
Width: 640
Flags: W
LayerCount: 2
Fore
SplineSet
192 160 m 1,0,-1
 192 192 l 1,1,-1
 96 192 l 1,2,-1
 96 224 l 1,3,-1
 224 224 l 1,4,-1
 224 192 l 1,5,-1
 416 192 l 1,6,-1
 416 160 l 1,7,-1
 192 160 l 1,0,-1
64 224 m 1,8,-1
 64 384 l 1,9,-1
 96 384 l 1,10,-1
 96 224 l 1,11,-1
 64 224 l 1,8,-1
256 320 m 1,12,-1
 256 384 l 1,13,-1
 160 384 l 1,14,-1
 160 320 l 1,15,-1
 256 320 l 1,12,-1
352 320 m 1,16,-1
 352 480 l 1,17,-1
 192 480 l 1,18,-1
 192 448 l 1,19,-1
 128 448 l 1,20,-1
 128 416 l 1,21,-1
 288 416 l 1,22,-1
 288 320 l 1,23,-1
 352 320 l 1,16,-1
128 288 m 1,24,-1
 128 384 l 1,25,-1
 96 384 l 1,26,-1
 96 512 l 1,27,-1
 384 512 l 1,28,-1
 384 288 l 1,29,-1
 128 288 l 1,24,-1
EndSplineSet
Validated: 5
EndChar

StartChar: A
Encoding: 65 65 35
Width: 304
Flags: W
LayerCount: 2
Fore
SplineSet
168 256 m 1,0,-1
 168 416 l 1,1,-1
 136 416 l 1,2,-1
 136 256 l 1,3,-1
 168 256 l 1,0,-1
8 0 m 1,4,-1
 8 480 l 1,5,-1
 40 480 l 1,6,-1
 40 512 l 1,7,-1
 72 512 l 1,8,-1
 72 544 l 1,9,-1
 232 544 l 1,10,-1
 232 512 l 1,11,-1
 264 512 l 1,12,-1
 264 480 l 1,13,-1
 296 480 l 1,14,-1
 296 0 l 1,15,-1
 168 0 l 1,16,-1
 168 128 l 1,17,-1
 136 128 l 1,18,-1
 136 0 l 1,19,-1
 8 0 l 1,4,-1
EndSplineSet
Validated: 1
EndChar

StartChar: B
Encoding: 66 66 36
Width: 300
Flags: W
LayerCount: 2
Fore
SplineSet
164 128 m 1,0,-1
 164 192 l 1,1,-1
 132 192 l 1,2,-1
 132 128 l 1,3,-1
 164 128 l 1,0,-1
164 352 m 1,4,-1
 164 416 l 1,5,-1
 132 416 l 1,6,-1
 132 352 l 1,7,-1
 164 352 l 1,4,-1
4 0 m 1,8,-1
 4 544 l 1,9,-1
 228 544 l 1,10,-1
 228 512 l 1,11,-1
 260 512 l 1,12,-1
 260 480 l 1,13,-1
 292 480 l 1,14,-1
 292 32 l 1,15,-1
 260 32 l 1,16,-1
 260 0 l 1,17,-1
 4 0 l 1,8,-1
EndSplineSet
Validated: 1
EndChar

StartChar: C
Encoding: 67 67 37
Width: 308
Flags: W
LayerCount: 2
Fore
SplineSet
38 0 m 1,0,-1
 38 32 l 1,1,-1
 6 32 l 1,2,-1
 6 480 l 1,3,-1
 38 480 l 1,4,-1
 38 512 l 1,5,-1
 70 512 l 1,6,-1
 70 544 l 1,7,-1
 230 544 l 1,8,-1
 230 512 l 1,9,-1
 262 512 l 1,10,-1
 262 480 l 1,11,-1
 294 480 l 1,12,-1
 294 320 l 1,13,-1
 166 320 l 1,14,-1
 166 448 l 1,15,-1
 134 448 l 1,16,-1
 134 96 l 1,17,-1
 166 96 l 1,18,-1
 166 256 l 1,19,-1
 294 256 l 1,20,-1
 294 64 l 1,21,-1
 262 64 l 1,22,-1
 262 32 l 1,23,-1
 230 32 l 1,24,-1
 230 0 l 1,25,-1
 38 0 l 1,0,-1
EndSplineSet
Validated: 1
EndChar

StartChar: D
Encoding: 68 68 38
Width: 300
Flags: W
LayerCount: 2
Fore
SplineSet
166 96 m 1,0,-1
 166 448 l 1,1,-1
 134 448 l 1,2,-1
 134 96 l 1,3,-1
 166 96 l 1,0,-1
6 0 m 1,4,-1
 6 544 l 1,5,-1
 230 544 l 1,6,-1
 230 512 l 1,7,-1
 262 512 l 1,8,-1
 262 480 l 1,9,-1
 294 480 l 1,10,-1
 294 64 l 1,11,-1
 262 64 l 1,12,-1
 262 32 l 1,13,-1
 230 32 l 1,14,-1
 230 0 l 1,15,-1
 6 0 l 1,4,-1
EndSplineSet
Validated: 1
EndChar

StartChar: E
Encoding: 69 69 39
Width: 276
Flags: W
LayerCount: 2
Fore
SplineSet
70 0 m 1,0,-1
 70 32 l 1,1,-1
 38 32 l 1,2,-1
 38 64 l 1,3,-1
 6 64 l 1,4,-1
 6 480 l 1,5,-1
 38 480 l 1,6,-1
 38 512 l 1,7,-1
 70 512 l 1,8,-1
 70 544 l 1,9,-1
 262 544 l 1,10,-1
 262 384 l 1,11,-1
 134 384 l 1,12,-1
 134 352 l 1,13,-1
 262 352 l 1,14,-1
 262 224 l 1,15,-1
 134 224 l 1,16,-1
 134 192 l 1,17,-1
 262 192 l 1,18,-1
 262 0 l 1,19,-1
 70 0 l 1,0,-1
EndSplineSet
Validated: 1
EndChar

StartChar: F
Encoding: 70 70 40
Width: 278
Flags: W
LayerCount: 2
Fore
SplineSet
8 0 m 1,0,-1
 8 480 l 1,1,-1
 40 480 l 1,2,-1
 40 512 l 1,3,-1
 72 512 l 1,4,-1
 72 544 l 1,5,-1
 264 544 l 1,6,-1
 264 416 l 1,7,-1
 136 416 l 1,8,-1
 136 384 l 1,9,-1
 264 384 l 1,10,-1
 264 224 l 1,11,-1
 136 224 l 1,12,-1
 136 0 l 1,13,-1
 8 0 l 1,0,-1
EndSplineSet
Validated: 1
EndChar

StartChar: G
Encoding: 71 71 41
Width: 306
Flags: W
LayerCount: 2
Fore
SplineSet
40 0 m 1,0,-1
 40 32 l 1,1,-1
 8 32 l 1,2,-1
 8 480 l 1,3,-1
 40 480 l 1,4,-1
 40 512 l 1,5,-1
 72 512 l 1,6,-1
 72 544 l 1,7,-1
 296 544 l 1,8,-1
 296 416 l 1,9,-1
 136 416 l 1,10,-1
 136 96 l 1,11,-1
 168 96 l 1,12,-1
 168 352 l 1,13,-1
 296 352 l 1,14,-1
 296 0 l 1,15,-1
 40 0 l 1,0,-1
EndSplineSet
Validated: 1
EndChar

StartChar: H
Encoding: 72 72 42
Width: 308
Flags: W
LayerCount: 2
Fore
SplineSet
10 0 m 1,0,-1
 10 544 l 1,1,-1
 138 544 l 1,2,-1
 138 352 l 1,3,-1
 170 352 l 1,4,-1
 170 544 l 1,5,-1
 298 544 l 1,6,-1
 298 0 l 1,7,-1
 170 0 l 1,8,-1
 170 160 l 1,9,-1
 138 160 l 1,10,-1
 138 0 l 1,11,-1
 10 0 l 1,0,-1
EndSplineSet
Validated: 1
EndChar

StartChar: I
Encoding: 73 73 43
Width: 138
Flags: W
LayerCount: 2
Fore
SplineSet
10 0 m 1,0,-1
 10 544 l 1,1,-1
 138 544 l 1,2,-1
 138 0 l 1,3,-1
 10 0 l 1,0,-1
EndSplineSet
Validated: 1
EndChar

StartChar: J
Encoding: 74 74 44
Width: 308
Flags: W
LayerCount: 2
Fore
SplineSet
72 0 m 1,0,-1
 72 32 l 1,1,-1
 40 32 l 1,2,-1
 40 64 l 1,3,-1
 8 64 l 1,4,-1
 8 288 l 1,5,-1
 136 288 l 1,6,-1
 136 96 l 1,7,-1
 168 96 l 1,8,-1
 168 544 l 1,9,-1
 296 544 l 1,10,-1
 296 64 l 1,11,-1
 264 64 l 1,12,-1
 264 32 l 1,13,-1
 232 32 l 1,14,-1
 232 0 l 1,15,-1
 72 0 l 1,0,-1
EndSplineSet
Validated: 1
EndChar

StartChar: K
Encoding: 75 75 45
Width: 308
Flags: W
LayerCount: 2
Fore
SplineSet
8 0 m 1,0,-1
 8 544 l 1,1,-1
 136 544 l 1,2,-1
 136 480 l 1,3,-1
 168 480 l 1,4,-1
 168 512 l 1,5,-1
 200 512 l 1,6,-1
 200 544 l 1,7,-1
 296 544 l 1,8,-1
 296 416 l 1,9,-1
 264 416 l 1,10,-1
 264 384 l 1,11,-1
 200 384 l 1,12,-1
 200 256 l 1,13,-1
 264 256 l 1,14,-1
 264 224 l 1,15,-1
 296 224 l 1,16,-1
 296 0 l 1,17,-1
 232 0 l 1,18,-1
 232 32 l 1,19,-1
 200 32 l 1,20,-1
 200 64 l 1,21,-1
 168 64 l 1,22,-1
 168 224 l 1,23,-1
 136 224 l 1,24,-1
 136 0 l 1,25,-1
 8 0 l 1,0,-1
EndSplineSet
Validated: 1
EndChar

StartChar: L
Encoding: 76 76 46
Width: 296
Flags: W
LayerCount: 2
Fore
SplineSet
2 0 m 1,0,-1
 2 544 l 1,1,-1
 130 544 l 1,2,-1
 130 96 l 1,3,-1
 290 96 l 1,4,-1
 290 0 l 1,5,-1
 2 0 l 1,0,-1
EndSplineSet
Validated: 1
EndChar

StartChar: M
Encoding: 77 77 47
Width: 460
Flags: W
LayerCount: 2
Fore
SplineSet
6 0 m 1,0,-1
 6 544 l 1,1,-1
 358 544 l 1,2,-1
 358 512 l 1,3,-1
 390 512 l 1,4,-1
 390 480 l 1,5,-1
 422 480 l 1,6,-1
 422 448 l 1,7,-1
 454 448 l 1,8,-1
 454 0 l 1,9,-1
 326 0 l 1,10,-1
 326 416 l 1,11,-1
 294 416 l 1,12,-1
 294 0 l 1,13,-1
 166 0 l 1,14,-1
 166 416 l 1,15,-1
 134 416 l 1,16,-1
 134 0 l 1,17,-1
 6 0 l 1,0,-1
EndSplineSet
Validated: 1
EndChar

StartChar: N
Encoding: 78 78 48
Width: 352
Flags: W
LayerCount: 2
Fore
SplineSet
32 0 m 1,0,-1
 32 544 l 1,1,-1
 224 544 l 1,2,-1
 224 512 l 1,3,-1
 256 512 l 1,4,-1
 256 480 l 1,5,-1
 288 480 l 1,6,-1
 288 448 l 1,7,-1
 320 448 l 1,8,-1
 320 0 l 1,9,-1
 192 0 l 1,10,-1
 192 416 l 1,11,-1
 160 416 l 1,12,-1
 160 0 l 1,13,-1
 32 0 l 1,0,-1
EndSplineSet
Validated: 1
EndChar

StartChar: O
Encoding: 79 79 49
Width: 352
Flags: W
LayerCount: 2
Fore
SplineSet
192 96 m 1,0,-1
 192 448 l 1,1,-1
 160 448 l 1,2,-1
 160 96 l 1,3,-1
 192 96 l 1,0,-1
64 0 m 1,4,-1
 64 32 l 1,5,-1
 32 32 l 1,6,-1
 32 480 l 1,7,-1
 64 480 l 1,8,-1
 64 512 l 1,9,-1
 96 512 l 1,10,-1
 96 544 l 1,11,-1
 256 544 l 1,12,-1
 256 512 l 1,13,-1
 288 512 l 1,14,-1
 288 480 l 1,15,-1
 320 480 l 1,16,-1
 320 64 l 1,17,-1
 288 64 l 1,18,-1
 288 32 l 1,19,-1
 256 32 l 1,20,-1
 256 0 l 1,21,-1
 64 0 l 1,4,-1
EndSplineSet
Validated: 1
EndChar

StartChar: P
Encoding: 80 80 50
Width: 302
Flags: W
LayerCount: 2
Fore
SplineSet
164 192 m 1,0,-1
 164 448 l 1,1,-1
 132 448 l 1,2,-1
 132 192 l 1,3,-1
 164 192 l 1,0,-1
4 0 m 1,4,-1
 4 544 l 1,5,-1
 228 544 l 1,6,-1
 228 512 l 1,7,-1
 260 512 l 1,8,-1
 260 480 l 1,9,-1
 292 480 l 1,10,-1
 292 160 l 1,11,-1
 260 160 l 1,12,-1
 260 128 l 1,13,-1
 228 128 l 1,14,-1
 228 96 l 1,15,-1
 196 96 l 1,16,-1
 196 64 l 1,17,-1
 132 64 l 1,18,-1
 132 0 l 1,19,-1
 4 0 l 1,4,-1
EndSplineSet
Validated: 1
EndChar

StartChar: Q
Encoding: 81 81 51
Width: 416
Flags: W
LayerCount: 2
Fore
SplineSet
192 96 m 1,0,-1
 192 448 l 1,1,-1
 160 448 l 1,2,-1
 160 96 l 1,3,-1
 192 96 l 1,0,-1
64 0 m 1,4,-1
 64 32 l 1,5,-1
 32 32 l 1,6,-1
 32 480 l 1,7,-1
 64 480 l 1,8,-1
 64 512 l 1,9,-1
 96 512 l 1,10,-1
 96 544 l 1,11,-1
 256 544 l 1,12,-1
 256 512 l 1,13,-1
 288 512 l 1,14,-1
 288 480 l 1,15,-1
 320 480 l 1,16,-1
 320 160 l 1,17,-1
 288 160 l 1,18,-1
 288 128 l 1,19,-1
 256 128 l 1,20,-1
 256 96 l 1,21,-1
 352 96 l 1,22,-1
 352 0 l 1,23,-1
 64 0 l 1,4,-1
EndSplineSet
Validated: 1
EndChar

StartChar: R
Encoding: 82 82 52
Width: 304
Flags: W
LayerCount: 2
Fore
SplineSet
168 256 m 1,0,-1
 168 384 l 1,1,-1
 136 384 l 1,2,-1
 136 256 l 1,3,-1
 168 256 l 1,0,-1
8 0 m 1,4,-1
 8 544 l 1,5,-1
 232 544 l 1,6,-1
 232 512 l 1,7,-1
 264 512 l 1,8,-1
 264 480 l 1,9,-1
 296 480 l 1,10,-1
 296 224 l 1,11,-1
 264 224 l 1,12,-1
 264 192 l 1,13,-1
 232 192 l 1,14,-1
 232 160 l 1,15,-1
 200 160 l 1,16,-1
 200 128 l 1,17,-1
 232 128 l 1,18,-1
 232 96 l 1,19,-1
 264 96 l 1,20,-1
 264 64 l 1,21,-1
 296 64 l 1,22,-1
 296 0 l 1,23,-1
 168 0 l 1,24,-1
 168 96 l 1,25,-1
 136 96 l 1,26,-1
 136 0 l 1,27,-1
 8 0 l 1,4,-1
EndSplineSet
Validated: 1
EndChar

StartChar: S
Encoding: 83 83 53
Width: 352
Flags: W
LayerCount: 2
Fore
SplineSet
32 0 m 1,0,-1
 32 192 l 1,1,-1
 192 192 l 1,2,-1
 192 224 l 1,3,-1
 96 224 l 1,4,-1
 96 256 l 1,5,-1
 64 256 l 1,6,-1
 64 288 l 1,7,-1
 32 288 l 1,8,-1
 32 480 l 1,9,-1
 64 480 l 1,10,-1
 64 512 l 1,11,-1
 96 512 l 1,12,-1
 96 544 l 1,13,-1
 320 544 l 1,14,-1
 320 416 l 1,15,-1
 160 416 l 1,16,-1
 160 384 l 1,17,-1
 256 384 l 1,18,-1
 256 352 l 1,19,-1
 288 352 l 1,20,-1
 288 320 l 1,21,-1
 320 320 l 1,22,-1
 320 96 l 1,23,-1
 288 96 l 1,24,-1
 288 64 l 1,25,-1
 256 64 l 1,26,-1
 256 32 l 1,27,-1
 224 32 l 1,28,-1
 224 0 l 1,29,-1
 32 0 l 1,0,-1
EndSplineSet
Validated: 1
EndChar

StartChar: T
Encoding: 84 84 54
Width: 322
Flags: W
LayerCount: 2
Fore
SplineSet
96 0 m 1,0,-1
 96 416 l 1,1,-1
 0 416 l 1,2,-1
 0 544 l 1,3,-1
 320 544 l 1,4,-1
 320 416 l 1,5,-1
 224 416 l 1,6,-1
 224 0 l 1,7,-1
 96 0 l 1,0,-1
EndSplineSet
Validated: 1
EndChar

StartChar: U
Encoding: 85 85 55
Width: 352
Flags: W
LayerCount: 2
Fore
SplineSet
64 0 m 1,0,-1
 64 32 l 1,1,-1
 32 32 l 1,2,-1
 32 544 l 1,3,-1
 160 544 l 1,4,-1
 160 96 l 1,5,-1
 192 96 l 1,6,-1
 192 544 l 1,7,-1
 320 544 l 1,8,-1
 320 64 l 1,9,-1
 288 64 l 1,10,-1
 288 32 l 1,11,-1
 256 32 l 1,12,-1
 256 0 l 1,13,-1
 64 0 l 1,0,-1
EndSplineSet
Validated: 1
EndChar

StartChar: V
Encoding: 86 86 56
Width: 352
Flags: W
LayerCount: 2
Fore
SplineSet
32 0 m 1,0,-1
 32 544 l 1,1,-1
 160 544 l 1,2,-1
 160 96 l 1,3,-1
 192 96 l 1,4,-1
 192 544 l 1,5,-1
 320 544 l 1,6,-1
 320 128 l 1,7,-1
 288 128 l 1,8,-1
 288 96 l 1,9,-1
 256 96 l 1,10,-1
 256 64 l 1,11,-1
 224 64 l 1,12,-1
 224 32 l 1,13,-1
 192 32 l 1,14,-1
 192 0 l 1,15,-1
 32 0 l 1,0,-1
EndSplineSet
Validated: 1
EndChar

StartChar: W
Encoding: 87 87 57
Width: 448
Flags: W
LayerCount: 2
Fore
SplineSet
96 0 m 1,0,-1
 96 32 l 1,1,-1
 64 32 l 1,2,-1
 64 64 l 1,3,-1
 32 64 l 1,4,-1
 32 96 l 1,5,-1
 0 96 l 1,6,-1
 0 544 l 1,7,-1
 128 544 l 1,8,-1
 128 128 l 1,9,-1
 160 128 l 1,10,-1
 160 544 l 1,11,-1
 288 544 l 1,12,-1
 288 128 l 1,13,-1
 320 128 l 1,14,-1
 320 544 l 1,15,-1
 448 544 l 1,16,-1
 448 0 l 1,17,-1
 96 0 l 1,0,-1
EndSplineSet
Validated: 1
EndChar

StartChar: X
Encoding: 88 88 58
Width: 352
Flags: W
LayerCount: 2
Fore
SplineSet
32 0 m 1,0,-1
 32 160 l 1,1,-1
 96 160 l 1,2,-1
 96 352 l 1,3,-1
 32 352 l 1,4,-1
 32 544 l 1,5,-1
 64 544 l 1,6,-1
 64 512 l 1,7,-1
 96 512 l 1,8,-1
 96 480 l 1,9,-1
 128 480 l 1,10,-1
 128 416 l 1,11,-1
 160 416 l 1,12,-1
 160 352 l 1,13,-1
 192 352 l 1,14,-1
 192 416 l 1,15,-1
 224 416 l 1,16,-1
 224 480 l 1,17,-1
 256 480 l 1,18,-1
 256 512 l 1,19,-1
 288 512 l 1,20,-1
 288 544 l 1,21,-1
 320 544 l 1,22,-1
 320 352 l 1,23,-1
 256 352 l 1,24,-1
 256 160 l 1,25,-1
 320 160 l 1,26,-1
 320 0 l 1,27,-1
 288 0 l 1,28,-1
 288 32 l 1,29,-1
 256 32 l 1,30,-1
 256 96 l 1,31,-1
 224 96 l 1,32,-1
 224 128 l 1,33,-1
 192 128 l 1,34,-1
 192 192 l 1,35,-1
 160 192 l 1,36,-1
 160 128 l 1,37,-1
 128 128 l 1,38,-1
 128 96 l 1,39,-1
 96 96 l 1,40,-1
 96 32 l 1,41,-1
 64 32 l 1,42,-1
 64 0 l 1,43,-1
 32 0 l 1,0,-1
EndSplineSet
Validated: 1
EndChar

StartChar: Y
Encoding: 89 89 59
Width: 308
Flags: W
LayerCount: 2
Fore
SplineSet
68 0 m 1,0,-1
 68 128 l 1,1,-1
 164 128 l 1,2,-1
 164 160 l 1,3,-1
 68 160 l 1,4,-1
 68 192 l 1,5,-1
 36 192 l 1,6,-1
 36 224 l 1,7,-1
 4 224 l 1,8,-1
 4 544 l 1,9,-1
 132 544 l 1,10,-1
 132 352 l 1,11,-1
 164 352 l 1,12,-1
 164 544 l 1,13,-1
 292 544 l 1,14,-1
 292 64 l 1,15,-1
 260 64 l 1,16,-1
 260 32 l 1,17,-1
 228 32 l 1,18,-1
 228 0 l 1,19,-1
 68 0 l 1,0,-1
EndSplineSet
Validated: 1
EndChar

StartChar: Z
Encoding: 90 90 60
Width: 384
Flags: W
LayerCount: 2
Fore
SplineSet
32 0 m 1,0,-1
 32 224 l 1,1,-1
 64 224 l 1,2,-1
 64 288 l 1,3,-1
 128 288 l 1,4,-1
 128 320 l 1,5,-1
 192 320 l 1,6,-1
 192 352 l 1,7,-1
 256 352 l 1,8,-1
 256 416 l 1,9,-1
 32 416 l 1,10,-1
 32 544 l 1,11,-1
 352 544 l 1,12,-1
 352 288 l 1,13,-1
 320 288 l 1,14,-1
 320 256 l 1,15,-1
 256 256 l 1,16,-1
 256 224 l 1,17,-1
 192 224 l 1,18,-1
 192 192 l 1,19,-1
 128 192 l 1,20,-1
 128 128 l 1,21,-1
 352 128 l 1,22,-1
 352 0 l 1,23,-1
 32 0 l 1,0,-1
EndSplineSet
Validated: 1
EndChar

StartChar: underscore
Encoding: 95 95 61
Width: 448
Flags: W
LayerCount: 2
Fore
SplineSet
32 0 m 1,0,-1
 32 32 l 1,1,-1
 256 32 l 1,2,-1
 256 0 l 1,3,-1
 32 0 l 1,0,-1
EndSplineSet
Validated: 1
EndChar

StartChar: a
Encoding: 97 97 62
Width: 296
Flags: W
LayerCount: 2
Fore
SplineSet
164 96 m 1,0,-1
 164 256 l 1,1,-1
 132 256 l 1,2,-1
 132 96 l 1,3,-1
 164 96 l 1,0,-1
68 0 m 1,4,-1
 68 32 l 1,5,-1
 36 32 l 1,6,-1
 36 64 l 1,7,-1
 4 64 l 1,8,-1
 4 320 l 1,9,-1
 36 320 l 1,10,-1
 36 352 l 1,11,-1
 68 352 l 1,12,-1
 68 384 l 1,13,-1
 292 384 l 1,14,-1
 292 0 l 1,15,-1
 68 0 l 1,4,-1
EndSplineSet
Validated: 1
EndChar

StartChar: b
Encoding: 98 98 63
Width: 352
Flags: W
LayerCount: 2
Fore
SplineSet
192 96 m 1,0,-1
 192 256 l 1,1,-1
 160 256 l 1,2,-1
 160 96 l 1,3,-1
 192 96 l 1,0,-1
32 0 m 1,4,-1
 32 544 l 1,5,-1
 160 544 l 1,6,-1
 160 384 l 1,7,-1
 256 384 l 1,8,-1
 256 352 l 1,9,-1
 288 352 l 1,10,-1
 288 320 l 1,11,-1
 320 320 l 1,12,-1
 320 64 l 1,13,-1
 288 64 l 1,14,-1
 288 32 l 1,15,-1
 256 32 l 1,16,-1
 256 0 l 1,17,-1
 32 0 l 1,4,-1
EndSplineSet
Validated: 1
EndChar

StartChar: c
Encoding: 99 99 64
Width: 352
Flags: W
LayerCount: 2
Fore
SplineSet
96 0 m 1,0,-1
 96 32 l 1,1,-1
 64 32 l 1,2,-1
 64 64 l 1,3,-1
 32 64 l 1,4,-1
 32 320 l 1,5,-1
 64 320 l 1,6,-1
 64 352 l 1,7,-1
 96 352 l 1,8,-1
 96 384 l 1,9,-1
 256 384 l 1,10,-1
 256 352 l 1,11,-1
 288 352 l 1,12,-1
 288 320 l 1,13,-1
 320 320 l 1,14,-1
 320 192 l 1,15,-1
 192 192 l 1,16,-1
 192 256 l 1,17,-1
 160 256 l 1,18,-1
 160 96 l 1,19,-1
 192 96 l 1,20,-1
 192 160 l 1,21,-1
 320 160 l 1,22,-1
 320 64 l 1,23,-1
 288 64 l 1,24,-1
 288 32 l 1,25,-1
 256 32 l 1,26,-1
 256 0 l 1,27,-1
 96 0 l 1,0,-1
EndSplineSet
Validated: 1
EndChar

StartChar: d
Encoding: 100 100 65
Width: 298
Flags: W
LayerCount: 2
Fore
SplineSet
164 96 m 1,0,-1
 164 256 l 1,1,-1
 132 256 l 1,2,-1
 132 96 l 1,3,-1
 164 96 l 1,0,-1
68 0 m 1,4,-1
 68 32 l 1,5,-1
 36 32 l 1,6,-1
 36 64 l 1,7,-1
 4 64 l 1,8,-1
 4 320 l 1,9,-1
 36 320 l 1,10,-1
 36 352 l 1,11,-1
 68 352 l 1,12,-1
 68 384 l 1,13,-1
 164 384 l 1,14,-1
 164 544 l 1,15,-1
 292 544 l 1,16,-1
 292 0 l 1,17,-1
 68 0 l 1,4,-1
EndSplineSet
Validated: 1
EndChar

StartChar: e
Encoding: 101 101 66
Width: 352
Flags: W
LayerCount: 2
Fore
SplineSet
192 160 m 1,0,-1
 192 256 l 1,1,-1
 160 256 l 1,2,-1
 160 160 l 1,3,-1
 192 160 l 1,0,-1
96 0 m 1,4,-1
 96 32 l 1,5,-1
 64 32 l 1,6,-1
 64 64 l 1,7,-1
 32 64 l 1,8,-1
 32 320 l 1,9,-1
 64 320 l 1,10,-1
 64 352 l 1,11,-1
 96 352 l 1,12,-1
 96 384 l 1,13,-1
 128 384 l 1,14,-1
 128 416 l 1,15,-1
 224 416 l 1,16,-1
 224 384 l 1,17,-1
 256 384 l 1,18,-1
 256 352 l 1,19,-1
 288 352 l 1,20,-1
 288 320 l 1,21,-1
 320 320 l 1,22,-1
 320 128 l 1,23,-1
 192 128 l 1,24,-1
 192 0 l 1,25,-1
 96 0 l 1,4,-1
EndSplineSet
Validated: 1
EndChar

StartChar: f
Encoding: 102 102 67
Width: 384
Flags: W
LayerCount: 2
Fore
SplineSet
96 0 m 1,0,-1
 96 224 l 1,1,-1
 0 224 l 1,2,-1
 0 384 l 1,3,-1
 96 384 l 1,4,-1
 96 480 l 1,5,-1
 128 480 l 1,6,-1
 128 512 l 1,7,-1
 160 512 l 1,8,-1
 160 544 l 1,9,-1
 352 544 l 1,10,-1
 352 416 l 1,11,-1
 224 416 l 1,12,-1
 224 384 l 1,13,-1
 352 384 l 1,14,-1
 352 224 l 1,15,-1
 224 224 l 1,16,-1
 224 0 l 1,17,-1
 96 0 l 1,0,-1
EndSplineSet
Validated: 1
EndChar

StartChar: g
Encoding: 103 103 68
Width: 352
Flags: W
LayerCount: 2
Fore
SplineSet
192 192 m 1,0,-1
 192 288 l 1,1,-1
 160 288 l 1,2,-1
 160 192 l 1,3,-1
 192 192 l 1,0,-1
128 -128 m 1,4,-1
 128 0 l 1,5,-1
 192 0 l 1,6,-1
 192 64 l 1,7,-1
 96 64 l 1,8,-1
 96 96 l 1,9,-1
 64 96 l 1,10,-1
 64 128 l 1,11,-1
 32 128 l 1,12,-1
 32 352 l 1,13,-1
 64 352 l 1,14,-1
 64 384 l 1,15,-1
 96 384 l 1,16,-1
 96 416 l 1,17,-1
 320 416 l 1,18,-1
 320 -64 l 1,19,-1
 288 -64 l 1,20,-1
 288 -96 l 1,21,-1
 256 -96 l 1,22,-1
 256 -128 l 1,23,-1
 128 -128 l 1,4,-1
EndSplineSet
Validated: 1
EndChar

StartChar: h
Encoding: 104 104 69
Width: 302
Flags: W
LayerCount: 2
Fore
SplineSet
4 0 m 1,0,-1
 4 544 l 1,1,-1
 132 544 l 1,2,-1
 132 352 l 1,3,-1
 228 352 l 1,4,-1
 228 320 l 1,5,-1
 260 320 l 1,6,-1
 260 288 l 1,7,-1
 292 288 l 1,8,-1
 292 0 l 1,9,-1
 164 0 l 1,10,-1
 164 160 l 1,11,-1
 132 160 l 1,12,-1
 132 0 l 1,13,-1
 4 0 l 1,0,-1
EndSplineSet
Validated: 1
EndChar

StartChar: i
Encoding: 105 105 70
Width: 146
Flags: W
LayerCount: 2
Fore
SplineSet
8 0 m 1,0,-1
 8 256 l 1,1,-1
 136 256 l 1,2,-1
 136 0 l 1,3,-1
 8 0 l 1,0,-1
8 270 m 1,4,-1
 8 372 l 1,5,-1
 136 372 l 1,6,-1
 136 270 l 1,7,-1
 8 270 l 1,4,-1
EndSplineSet
Validated: 1
EndChar

StartChar: j
Encoding: 106 106 71
Width: 384
Flags: W
LayerCount: 2
Fore
SplineSet
96 -128 m 1,0,-1
 96 -96 l 1,1,-1
 64 -96 l 1,2,-1
 64 -64 l 1,3,-1
 32 -64 l 1,4,-1
 32 64 l 1,5,-1
 160 64 l 1,6,-1
 160 -32 l 1,7,-1
 192 -32 l 1,8,-1
 192 256 l 1,9,-1
 320 256 l 1,10,-1
 320 -64 l 1,11,-1
 288 -64 l 1,12,-1
 288 -96 l 1,13,-1
 256 -96 l 1,14,-1
 256 -128 l 1,15,-1
 96 -128 l 1,0,-1
192 288 m 1,16,-1
 192 416 l 1,17,-1
 320 416 l 1,18,-1
 320 288 l 1,19,-1
 192 288 l 1,16,-1
EndSplineSet
Validated: 1
EndChar

StartChar: k
Encoding: 107 107 72
Width: 320
Flags: W
LayerCount: 2
Fore
SplineSet
32 0 m 1,0,-1
 32 544 l 1,1,-1
 160 544 l 1,2,-1
 160 416 l 1,3,-1
 224 416 l 1,4,-1
 224 480 l 1,5,-1
 288 480 l 1,6,-1
 288 320 l 1,7,-1
 192 320 l 1,8,-1
 192 288 l 1,9,-1
 224 288 l 1,10,-1
 224 256 l 1,11,-1
 256 256 l 1,12,-1
 256 224 l 1,13,-1
 288 224 l 1,14,-1
 288 0 l 1,15,-1
 192 0 l 1,16,-1
 192 224 l 1,17,-1
 160 224 l 1,18,-1
 160 0 l 1,19,-1
 32 0 l 1,0,-1
EndSplineSet
Validated: 1
EndChar

StartChar: l
Encoding: 108 108 73
Width: 134
Flags: W
LayerCount: 2
Fore
SplineSet
4 0 m 1,0,-1
 4 544 l 1,1,-1
 132 544 l 1,2,-1
 132 0 l 1,3,-1
 4 0 l 1,0,-1
EndSplineSet
Validated: 1
EndChar

StartChar: m
Encoding: 109 109 74
Width: 640
Flags: W
LayerCount: 2
Fore
SplineSet
32 0 m 1,0,-1
 32 384 l 1,1,-1
 384 384 l 1,2,-1
 384 352 l 1,3,-1
 416 352 l 1,4,-1
 416 320 l 1,5,-1
 448 320 l 1,6,-1
 448 288 l 1,7,-1
 480 288 l 1,8,-1
 480 0 l 1,9,-1
 352 0 l 1,10,-1
 352 256 l 1,11,-1
 320 256 l 1,12,-1
 320 0 l 1,13,-1
 192 0 l 1,14,-1
 192 256 l 1,15,-1
 160 256 l 1,16,-1
 160 0 l 1,17,-1
 32 0 l 1,0,-1
EndSplineSet
Validated: 1
EndChar

StartChar: n
Encoding: 110 110 75
Width: 352
Flags: W
LayerCount: 2
Fore
SplineSet
32 0 m 1,0,-1
 32 384 l 1,1,-1
 224 384 l 1,2,-1
 224 352 l 1,3,-1
 256 352 l 1,4,-1
 256 320 l 1,5,-1
 288 320 l 1,6,-1
 288 288 l 1,7,-1
 320 288 l 1,8,-1
 320 0 l 1,9,-1
 192 0 l 1,10,-1
 192 256 l 1,11,-1
 160 256 l 1,12,-1
 160 0 l 1,13,-1
 32 0 l 1,0,-1
EndSplineSet
Validated: 1
EndChar

StartChar: o
Encoding: 111 111 76
Width: 352
Flags: W
LayerCount: 2
Fore
SplineSet
192 128 m 1,0,-1
 192 256 l 1,1,-1
 160 256 l 1,2,-1
 160 128 l 1,3,-1
 192 128 l 1,0,-1
128 0 m 1,4,-1
 128 32 l 1,5,-1
 96 32 l 1,6,-1
 96 64 l 1,7,-1
 64 64 l 1,8,-1
 64 96 l 1,9,-1
 32 96 l 1,10,-1
 32 288 l 1,11,-1
 64 288 l 1,12,-1
 64 320 l 1,13,-1
 96 320 l 1,14,-1
 96 352 l 1,15,-1
 128 352 l 1,16,-1
 128 384 l 1,17,-1
 224 384 l 1,18,-1
 224 352 l 1,19,-1
 256 352 l 1,20,-1
 256 320 l 1,21,-1
 288 320 l 1,22,-1
 288 288 l 1,23,-1
 320 288 l 1,24,-1
 320 96 l 1,25,-1
 288 96 l 1,26,-1
 288 64 l 1,27,-1
 256 64 l 1,28,-1
 256 32 l 1,29,-1
 224 32 l 1,30,-1
 224 0 l 1,31,-1
 128 0 l 1,4,-1
EndSplineSet
Validated: 1
EndChar

StartChar: p
Encoding: 112 112 77
Width: 298
Flags: W
LayerCount: 2
Fore
SplineSet
164 192 m 1,0,-1
 164 288 l 1,1,-1
 132 288 l 1,2,-1
 132 192 l 1,3,-1
 164 192 l 1,0,-1
4 -128 m 1,4,-1
 4 416 l 1,5,-1
 228 416 l 1,6,-1
 228 384 l 1,7,-1
 260 384 l 1,8,-1
 260 352 l 1,9,-1
 292 352 l 1,10,-1
 292 128 l 1,11,-1
 260 128 l 1,12,-1
 260 96 l 1,13,-1
 228 96 l 1,14,-1
 228 64 l 1,15,-1
 132 64 l 1,16,-1
 132 -128 l 1,17,-1
 4 -128 l 1,4,-1
EndSplineSet
Validated: 1
EndChar

StartChar: q
Encoding: 113 113 78
Width: 352
Flags: W
LayerCount: 2
Fore
SplineSet
192 192 m 1,0,-1
 192 288 l 1,1,-1
 160 288 l 1,2,-1
 160 192 l 1,3,-1
 192 192 l 1,0,-1
192 -128 m 1,4,-1
 192 64 l 1,5,-1
 96 64 l 1,6,-1
 96 96 l 1,7,-1
 64 96 l 1,8,-1
 64 128 l 1,9,-1
 32 128 l 1,10,-1
 32 352 l 1,11,-1
 64 352 l 1,12,-1
 64 384 l 1,13,-1
 96 384 l 1,14,-1
 96 416 l 1,15,-1
 320 416 l 1,16,-1
 320 -128 l 1,17,-1
 192 -128 l 1,4,-1
EndSplineSet
Validated: 1
EndChar

StartChar: r
Encoding: 114 114 79
Width: 262
Flags: W
LayerCount: 2
Fore
SplineSet
4 0 m 1,0,-1
 4 256 l 1,1,-1
 36 256 l 1,2,-1
 36 288 l 1,3,-1
 68 288 l 1,4,-1
 68 320 l 1,5,-1
 260 320 l 1,6,-1
 260 224 l 1,7,-1
 164 224 l 1,8,-1
 164 192 l 1,9,-1
 132 192 l 1,10,-1
 132 0 l 1,11,-1
 4 0 l 1,0,-1
EndSplineSet
Validated: 1
EndChar

StartChar: s
Encoding: 115 115 80
Width: 320
Flags: W
LayerCount: 2
Fore
SplineSet
32 0 m 1,0,-1
 32 96 l 1,1,-1
 192 96 l 1,2,-1
 192 128 l 1,3,-1
 64 128 l 1,4,-1
 64 160 l 1,5,-1
 32 160 l 1,6,-1
 32 256 l 1,7,-1
 64 256 l 1,8,-1
 64 288 l 1,9,-1
 96 288 l 1,10,-1
 96 320 l 1,11,-1
 288 320 l 1,12,-1
 288 192 l 1,13,-1
 192 192 l 1,14,-1
 192 160 l 1,15,-1
 256 160 l 1,16,-1
 256 128 l 1,17,-1
 288 128 l 1,18,-1
 288 32 l 1,19,-1
 256 32 l 1,20,-1
 256 0 l 1,21,-1
 32 0 l 1,0,-1
EndSplineSet
Validated: 1
EndChar

StartChar: t
Encoding: 116 116 81
Width: 268
Flags: W
LayerCount: 2
Fore
SplineSet
134 0 m 1,0,-1
 134 32 l 1,1,-1
 102 32 l 1,2,-1
 102 64 l 1,3,-1
 70 64 l 1,4,-1
 70 256 l 1,5,-1
 6 256 l 1,6,-1
 6 384 l 1,7,-1
 70 384 l 1,8,-1
 70 544 l 1,9,-1
 198 544 l 1,10,-1
 198 384 l 1,11,-1
 262 384 l 1,12,-1
 262 256 l 1,13,-1
 198 256 l 1,14,-1
 198 128 l 1,15,-1
 262 128 l 1,16,-1
 262 0 l 1,17,-1
 134 0 l 1,0,-1
EndSplineSet
Validated: 1
EndChar

StartChar: u
Encoding: 117 117 82
Width: 352
Flags: W
LayerCount: 2
Fore
SplineSet
128 0 m 1,0,-1
 128 32 l 1,1,-1
 96 32 l 1,2,-1
 96 64 l 1,3,-1
 64 64 l 1,4,-1
 64 96 l 1,5,-1
 32 96 l 1,6,-1
 32 384 l 1,7,-1
 160 384 l 1,8,-1
 160 128 l 1,9,-1
 192 128 l 1,10,-1
 192 384 l 1,11,-1
 320 384 l 1,12,-1
 320 0 l 1,13,-1
 128 0 l 1,0,-1
EndSplineSet
Validated: 1
EndChar

StartChar: v
Encoding: 118 118 83
Width: 352
Flags: W
LayerCount: 2
Fore
SplineSet
32 0 m 1,0,-1
 32 384 l 1,1,-1
 160 384 l 1,2,-1
 160 128 l 1,3,-1
 192 128 l 1,4,-1
 192 384 l 1,5,-1
 320 384 l 1,6,-1
 320 160 l 1,7,-1
 288 160 l 1,8,-1
 288 128 l 1,9,-1
 256 128 l 1,10,-1
 256 96 l 1,11,-1
 224 96 l 1,12,-1
 224 64 l 1,13,-1
 192 64 l 1,14,-1
 192 32 l 1,15,-1
 160 32 l 1,16,-1
 160 0 l 1,17,-1
 32 0 l 1,0,-1
EndSplineSet
Validated: 1
EndChar

StartChar: w
Encoding: 119 119 84
Width: 468
Flags: W
LayerCount: 2
Fore
SplineSet
106 0 m 1,0,-1
 106 32 l 1,1,-1
 74 32 l 1,2,-1
 74 64 l 1,3,-1
 42 64 l 1,4,-1
 42 96 l 1,5,-1
 10 96 l 1,6,-1
 10 384 l 1,7,-1
 138 384 l 1,8,-1
 138 128 l 1,9,-1
 170 128 l 1,10,-1
 170 384 l 1,11,-1
 298 384 l 1,12,-1
 298 128 l 1,13,-1
 330 128 l 1,14,-1
 330 384 l 1,15,-1
 458 384 l 1,16,-1
 458 0 l 1,17,-1
 106 0 l 1,0,-1
EndSplineSet
Validated: 1
EndChar

StartChar: x
Encoding: 120 120 85
Width: 352
Flags: W
LayerCount: 2
Fore
SplineSet
32 0 m 1,0,-1
 32 160 l 1,1,-1
 96 160 l 1,2,-1
 96 224 l 1,3,-1
 32 224 l 1,4,-1
 32 416 l 1,5,-1
 64 416 l 1,6,-1
 64 384 l 1,7,-1
 96 384 l 1,8,-1
 96 352 l 1,9,-1
 128 352 l 1,10,-1
 128 288 l 1,11,-1
 160 288 l 1,12,-1
 160 256 l 1,13,-1
 192 256 l 1,14,-1
 192 288 l 1,15,-1
 224 288 l 1,16,-1
 224 352 l 1,17,-1
 256 352 l 1,18,-1
 256 384 l 1,19,-1
 288 384 l 1,20,-1
 288 416 l 1,21,-1
 320 416 l 1,22,-1
 320 224 l 1,23,-1
 256 224 l 1,24,-1
 256 160 l 1,25,-1
 320 160 l 1,26,-1
 320 0 l 1,27,-1
 288 0 l 1,28,-1
 288 32 l 1,29,-1
 256 32 l 1,30,-1
 256 96 l 1,31,-1
 224 96 l 1,32,-1
 224 128 l 1,33,-1
 192 128 l 1,34,-1
 192 160 l 1,35,-1
 160 160 l 1,36,-1
 160 128 l 1,37,-1
 128 128 l 1,38,-1
 128 96 l 1,39,-1
 96 96 l 1,40,-1
 96 32 l 1,41,-1
 64 32 l 1,42,-1
 64 0 l 1,43,-1
 32 0 l 1,0,-1
EndSplineSet
Validated: 1
EndChar

StartChar: y
Encoding: 121 121 86
Width: 294
Flags: W
LayerCount: 2
Fore
SplineSet
100 -128 m 1,0,-1
 100 0 l 1,1,-1
 164 0 l 1,2,-1
 164 64 l 1,3,-1
 68 64 l 1,4,-1
 68 96 l 1,5,-1
 36 96 l 1,6,-1
 36 128 l 1,7,-1
 4 128 l 1,8,-1
 4 416 l 1,9,-1
 132 416 l 1,10,-1
 132 192 l 1,11,-1
 164 192 l 1,12,-1
 164 416 l 1,13,-1
 292 416 l 1,14,-1
 292 -64 l 1,15,-1
 260 -64 l 1,16,-1
 260 -96 l 1,17,-1
 228 -96 l 1,18,-1
 228 -128 l 1,19,-1
 100 -128 l 1,0,-1
EndSplineSet
Validated: 1
EndChar

StartChar: z
Encoding: 122 122 87
Width: 384
Flags: W
LayerCount: 2
Fore
SplineSet
32 0 m 1,0,-1
 32 224 l 1,1,-1
 96 224 l 1,2,-1
 96 256 l 1,3,-1
 160 256 l 1,4,-1
 160 288 l 1,5,-1
 224 288 l 1,6,-1
 224 352 l 1,7,-1
 32 352 l 1,8,-1
 32 480 l 1,9,-1
 352 480 l 1,10,-1
 352 256 l 1,11,-1
 320 256 l 1,12,-1
 320 224 l 1,13,-1
 288 224 l 1,14,-1
 288 192 l 1,15,-1
 224 192 l 1,16,-1
 224 160 l 1,17,-1
 128 160 l 1,18,-1
 128 128 l 1,19,-1
 352 128 l 1,20,-1
 352 0 l 1,21,-1
 32 0 l 1,0,-1
EndSplineSet
Validated: 1
EndChar

StartChar: quoteleft
Encoding: 8216 8216 88
Width: 128
Flags: W
LayerCount: 2
Fore
SplineSet
32 320 m 1,0,-1
 32 384 l 1,1,-1
 64 384 l 1,2,-1
 64 416 l 1,3,-1
 96 416 l 1,4,-1
 96 320 l 1,5,-1
 32 320 l 1,0,-1
EndSplineSet
Validated: 1
EndChar

StartChar: quoteright
Encoding: 8217 8217 89
Width: 160
Flags: W
LayerCount: 2
Fore
SplineSet
64 288 m 1,0,-1
 64 384 l 1,1,-1
 128 384 l 1,2,-1
 128 320 l 1,3,-1
 96 320 l 1,4,-1
 96 288 l 1,5,-1
 64 288 l 1,0,-1
EndSplineSet
Validated: 1
EndChar

StartChar: quotedblleft
Encoding: 8220 8220 90
Width: 224
Flags: W
LayerCount: 2
Fore
SplineSet
32 320 m 1,0,-1
 32 416 l 1,1,-1
 96 416 l 1,2,-1
 96 352 l 1,3,-1
 64 352 l 1,4,-1
 64 320 l 1,5,-1
 32 320 l 1,0,-1
128 320 m 1,6,-1
 128 416 l 1,7,-1
 192 416 l 1,8,-1
 192 352 l 1,9,-1
 160 352 l 1,10,-1
 160 320 l 1,11,-1
 128 320 l 1,6,-1
EndSplineSet
Validated: 1
EndChar

StartChar: quotedblright
Encoding: 8221 8221 91
Width: 224
Flags: W
LayerCount: 2
Fore
SplineSet
64 320 m 1,0,-1
 64 352 l 1,1,-1
 32 352 l 1,2,-1
 32 416 l 1,3,-1
 96 416 l 1,4,-1
 96 320 l 1,5,-1
 64 320 l 1,0,-1
160 320 m 1,6,-1
 160 352 l 1,7,-1
 128 352 l 1,8,-1
 128 416 l 1,9,-1
 192 416 l 1,10,-1
 192 320 l 1,11,-1
 160 320 l 1,6,-1
EndSplineSet
Validated: 1
EndChar

StartChar: quotedbl
Encoding: 34 34 92
Width: 224
Flags: W
LayerCount: 2
Fore
SplineSet
32 256 m 1,0,-1
 32 384 l 1,1,-1
 96 384 l 1,2,-1
 96 256 l 1,3,-1
 32 256 l 1,0,-1
128 256 m 1,4,-1
 128 384 l 1,5,-1
 192 384 l 1,6,-1
 192 256 l 1,7,-1
 128 256 l 1,4,-1
EndSplineSet
Validated: 1
EndChar
